%TF.GenerationSoftware,KiCad,Pcbnew,9.0.0*%
%TF.CreationDate,2025-03-28T18:13:54-04:00*%
%TF.ProjectId,thung,7468756e-672e-46b6-9963-61645f706362,rev?*%
%TF.SameCoordinates,Original*%
%TF.FileFunction,Legend,Top*%
%TF.FilePolarity,Positive*%
%FSLAX46Y46*%
G04 Gerber Fmt 4.6, Leading zero omitted, Abs format (unit mm)*
G04 Created by KiCad (PCBNEW 9.0.0) date 2025-03-28 18:13:54*
%MOMM*%
%LPD*%
G01*
G04 APERTURE LIST*
%ADD10C,0.150000*%
%ADD11C,0.120000*%
G04 APERTURE END LIST*
D10*
X30166666Y-51224819D02*
X30166666Y-51939104D01*
X30166666Y-51939104D02*
X30119047Y-52081961D01*
X30119047Y-52081961D02*
X30023809Y-52177200D01*
X30023809Y-52177200D02*
X29880952Y-52224819D01*
X29880952Y-52224819D02*
X29785714Y-52224819D01*
X30595238Y-51320057D02*
X30642857Y-51272438D01*
X30642857Y-51272438D02*
X30738095Y-51224819D01*
X30738095Y-51224819D02*
X30976190Y-51224819D01*
X30976190Y-51224819D02*
X31071428Y-51272438D01*
X31071428Y-51272438D02*
X31119047Y-51320057D01*
X31119047Y-51320057D02*
X31166666Y-51415295D01*
X31166666Y-51415295D02*
X31166666Y-51510533D01*
X31166666Y-51510533D02*
X31119047Y-51653390D01*
X31119047Y-51653390D02*
X30547619Y-52224819D01*
X30547619Y-52224819D02*
X31166666Y-52224819D01*
X65666666Y-37104819D02*
X65666666Y-37819104D01*
X65666666Y-37819104D02*
X65619047Y-37961961D01*
X65619047Y-37961961D02*
X65523809Y-38057200D01*
X65523809Y-38057200D02*
X65380952Y-38104819D01*
X65380952Y-38104819D02*
X65285714Y-38104819D01*
X66666666Y-38104819D02*
X66095238Y-38104819D01*
X66380952Y-38104819D02*
X66380952Y-37104819D01*
X66380952Y-37104819D02*
X66285714Y-37247676D01*
X66285714Y-37247676D02*
X66190476Y-37342914D01*
X66190476Y-37342914D02*
X66095238Y-37390533D01*
X48716667Y-26707200D02*
X48859524Y-26754819D01*
X48859524Y-26754819D02*
X49097619Y-26754819D01*
X49097619Y-26754819D02*
X49192857Y-26707200D01*
X49192857Y-26707200D02*
X49240476Y-26659580D01*
X49240476Y-26659580D02*
X49288095Y-26564342D01*
X49288095Y-26564342D02*
X49288095Y-26469104D01*
X49288095Y-26469104D02*
X49240476Y-26373866D01*
X49240476Y-26373866D02*
X49192857Y-26326247D01*
X49192857Y-26326247D02*
X49097619Y-26278628D01*
X49097619Y-26278628D02*
X48907143Y-26231009D01*
X48907143Y-26231009D02*
X48811905Y-26183390D01*
X48811905Y-26183390D02*
X48764286Y-26135771D01*
X48764286Y-26135771D02*
X48716667Y-26040533D01*
X48716667Y-26040533D02*
X48716667Y-25945295D01*
X48716667Y-25945295D02*
X48764286Y-25850057D01*
X48764286Y-25850057D02*
X48811905Y-25802438D01*
X48811905Y-25802438D02*
X48907143Y-25754819D01*
X48907143Y-25754819D02*
X49145238Y-25754819D01*
X49145238Y-25754819D02*
X49288095Y-25802438D01*
X49621429Y-25754819D02*
X49859524Y-26754819D01*
X49859524Y-26754819D02*
X50050000Y-26040533D01*
X50050000Y-26040533D02*
X50240476Y-26754819D01*
X50240476Y-26754819D02*
X50478572Y-25754819D01*
X51383333Y-26754819D02*
X50811905Y-26754819D01*
X51097619Y-26754819D02*
X51097619Y-25754819D01*
X51097619Y-25754819D02*
X51002381Y-25897676D01*
X51002381Y-25897676D02*
X50907143Y-25992914D01*
X50907143Y-25992914D02*
X50811905Y-26040533D01*
X53119047Y-42731009D02*
X53261904Y-42778628D01*
X53261904Y-42778628D02*
X53309523Y-42826247D01*
X53309523Y-42826247D02*
X53357142Y-42921485D01*
X53357142Y-42921485D02*
X53357142Y-43064342D01*
X53357142Y-43064342D02*
X53309523Y-43159580D01*
X53309523Y-43159580D02*
X53261904Y-43207200D01*
X53261904Y-43207200D02*
X53166666Y-43254819D01*
X53166666Y-43254819D02*
X52785714Y-43254819D01*
X52785714Y-43254819D02*
X52785714Y-42254819D01*
X52785714Y-42254819D02*
X53119047Y-42254819D01*
X53119047Y-42254819D02*
X53214285Y-42302438D01*
X53214285Y-42302438D02*
X53261904Y-42350057D01*
X53261904Y-42350057D02*
X53309523Y-42445295D01*
X53309523Y-42445295D02*
X53309523Y-42540533D01*
X53309523Y-42540533D02*
X53261904Y-42635771D01*
X53261904Y-42635771D02*
X53214285Y-42683390D01*
X53214285Y-42683390D02*
X53119047Y-42731009D01*
X53119047Y-42731009D02*
X52785714Y-42731009D01*
X53690476Y-42254819D02*
X54357142Y-42254819D01*
X54357142Y-42254819D02*
X53690476Y-43254819D01*
X53690476Y-43254819D02*
X54357142Y-43254819D01*
X55261904Y-43254819D02*
X54690476Y-43254819D01*
X54976190Y-43254819D02*
X54976190Y-42254819D01*
X54976190Y-42254819D02*
X54880952Y-42397676D01*
X54880952Y-42397676D02*
X54785714Y-42492914D01*
X54785714Y-42492914D02*
X54690476Y-42540533D01*
X49809048Y-47533866D02*
X50570953Y-47533866D01*
X50190000Y-47914819D02*
X50190000Y-47152914D01*
D11*
%TO.C,J2*%
X29170000Y-47730000D02*
X29170000Y-29890000D01*
X29170000Y-50330000D02*
X29170000Y-49000000D01*
X30500000Y-50330000D02*
X29170000Y-50330000D01*
X31830000Y-29890000D02*
X29170000Y-29890000D01*
X31830000Y-47730000D02*
X29170000Y-47730000D01*
X31830000Y-47730000D02*
X31830000Y-29890000D01*
%TO.C,J1*%
X64670000Y-41690000D02*
X64670000Y-49370000D01*
X64670000Y-41690000D02*
X67330000Y-41690000D01*
X64670000Y-49370000D02*
X67330000Y-49370000D01*
X66000000Y-39090000D02*
X67330000Y-39090000D01*
X67330000Y-39090000D02*
X67330000Y-40420000D01*
X67330000Y-41690000D02*
X67330000Y-49370000D01*
%TO.C,SW1*%
X46950000Y-29400000D02*
X47550000Y-29400000D01*
X47250000Y-29700000D02*
X46950000Y-29400000D01*
X47550000Y-29400000D02*
X47250000Y-29700000D01*
X48650000Y-27600000D02*
X48650000Y-39400000D01*
X52750000Y-27600000D02*
X48650000Y-27600000D01*
X52750000Y-39400000D02*
X48650000Y-39400000D01*
X54250000Y-33500000D02*
X55250000Y-33500000D01*
X54750000Y-33000000D02*
X54750000Y-34000000D01*
X56750000Y-27600000D02*
X60850000Y-27600000D01*
X60850000Y-27600000D02*
X60850000Y-30000000D01*
X60850000Y-32200000D02*
X60850000Y-34800000D01*
X60850000Y-37000000D02*
X60850000Y-39400000D01*
X60850000Y-39400000D02*
X56750000Y-39400000D01*
X57750000Y-33500000D02*
G75*
G02*
X51750000Y-33500000I-3000000J0D01*
G01*
X51750000Y-33500000D02*
G75*
G02*
X57750000Y-33500000I3000000J0D01*
G01*
%TO.C,BZ1*%
X60100000Y-50000000D02*
G75*
G02*
X47900000Y-50000000I-6100000J0D01*
G01*
X47900000Y-50000000D02*
G75*
G02*
X60100000Y-50000000I6100000J0D01*
G01*
%TD*%
M02*
