%TF.GenerationSoftware,KiCad,Pcbnew,9.0.0*%
%TF.CreationDate,2025-03-28T18:13:54-04:00*%
%TF.ProjectId,thung,7468756e-672e-46b6-9963-61645f706362,rev?*%
%TF.SameCoordinates,Original*%
%TF.FileFunction,Copper,L1,Top*%
%TF.FilePolarity,Positive*%
%FSLAX46Y46*%
G04 Gerber Fmt 4.6, Leading zero omitted, Abs format (unit mm)*
G04 Created by KiCad (PCBNEW 9.0.0) date 2025-03-28 18:13:54*
%MOMM*%
%LPD*%
G01*
G04 APERTURE LIST*
%TA.AperFunction,ComponentPad*%
%ADD10R,1.700000X1.700000*%
%TD*%
%TA.AperFunction,ComponentPad*%
%ADD11O,1.700000X1.700000*%
%TD*%
%TA.AperFunction,ComponentPad*%
%ADD12R,2.000000X2.000000*%
%TD*%
%TA.AperFunction,ComponentPad*%
%ADD13C,2.000000*%
%TD*%
%TA.AperFunction,ComponentPad*%
%ADD14R,3.200000X2.000000*%
%TD*%
%TA.AperFunction,Conductor*%
%ADD15C,0.200000*%
%TD*%
G04 APERTURE END LIST*
D10*
%TO.P,J2,1,Pin_1*%
%TO.N,Net-(J1-Pin_4)*%
X30500000Y-49000000D03*
D11*
%TO.P,J2,2,Pin_2*%
%TO.N,Net-(BZ1--)*%
X30500000Y-46460000D03*
%TO.P,J2,3,Pin_3*%
%TO.N,Net-(J1-Pin_2)*%
X30500000Y-43920000D03*
%TO.P,J2,4,Pin_4*%
%TO.N,Net-(J1-Pin_1)*%
X30500000Y-41380000D03*
%TO.P,J2,5,Pin_5*%
%TO.N,Net-(BZ1-+)*%
X30500000Y-38840000D03*
%TO.P,J2,6,Pin_6*%
%TO.N,Net-(J2-Pin_6)*%
X30500000Y-36300000D03*
%TO.P,J2,7,Pin_7*%
%TO.N,Net-(J2-Pin_7)*%
X30500000Y-33760000D03*
%TO.P,J2,8,Pin_8*%
%TO.N,Net-(J2-Pin_8)*%
X30500000Y-31220000D03*
%TD*%
D10*
%TO.P,J1,1,Pin_1*%
%TO.N,Net-(J1-Pin_1)*%
X66000000Y-40420000D03*
D11*
%TO.P,J1,2,Pin_2*%
%TO.N,Net-(J1-Pin_2)*%
X66000000Y-42960000D03*
%TO.P,J1,3,Pin_3*%
%TO.N,Net-(BZ1--)*%
X66000000Y-45500000D03*
%TO.P,J1,4,Pin_4*%
%TO.N,Net-(J1-Pin_4)*%
X66000000Y-48040000D03*
%TD*%
D12*
%TO.P,SW1,A,A*%
%TO.N,Net-(J2-Pin_7)*%
X47250000Y-31000000D03*
D13*
%TO.P,SW1,B,B*%
%TO.N,Net-(J2-Pin_6)*%
X47250000Y-36000000D03*
%TO.P,SW1,C,C*%
%TO.N,Net-(BZ1--)*%
X47250000Y-33500000D03*
D14*
%TO.P,SW1,MP*%
%TO.N,N/C*%
X54750000Y-27900000D03*
X54750000Y-39100000D03*
D13*
%TO.P,SW1,S1,S1*%
%TO.N,Net-(J2-Pin_8)*%
X61750000Y-36000000D03*
%TO.P,SW1,S2,S2*%
%TO.N,Net-(BZ1--)*%
X61750000Y-31000000D03*
%TD*%
D12*
%TO.P,BZ1,1,+*%
%TO.N,Net-(BZ1-+)*%
X50200000Y-50000000D03*
D13*
%TO.P,BZ1,2,-*%
%TO.N,Net-(BZ1--)*%
X57800000Y-50000000D03*
%TD*%
D15*
%TO.N,Net-(BZ1--)*%
X64000000Y-38500000D02*
X63000000Y-37500000D01*
X47250000Y-33500000D02*
X34290000Y-46460000D01*
X51250000Y-37500000D02*
X47250000Y-33500000D01*
X63000000Y-37500000D02*
X51250000Y-37500000D01*
X34290000Y-46460000D02*
X30500000Y-46460000D01*
X61750000Y-31000000D02*
X64000000Y-33250000D01*
X57800000Y-50000000D02*
X62300000Y-45500000D01*
X64000000Y-38500000D02*
X64000000Y-45500000D01*
X64000000Y-33250000D02*
X64000000Y-38500000D01*
X62300000Y-45500000D02*
X64000000Y-45500000D01*
X64000000Y-45500000D02*
X66000000Y-45500000D01*
%TO.N,Net-(J1-Pin_4)*%
X30500000Y-49000000D02*
X46500000Y-49000000D01*
X62739000Y-51301000D02*
X66000000Y-48040000D01*
X46500000Y-49000000D02*
X48801000Y-51301000D01*
X48801000Y-51301000D02*
X62739000Y-51301000D01*
%TO.N,Net-(J2-Pin_7)*%
X47000000Y-31000000D02*
X47250000Y-31000000D01*
X44240000Y-33760000D02*
X47000000Y-31000000D01*
X30500000Y-33760000D02*
X44240000Y-33760000D01*
%TO.N,Net-(J2-Pin_8)*%
X30500000Y-31220000D02*
X32220000Y-29500000D01*
X55250000Y-29500000D02*
X61750000Y-36000000D01*
X32220000Y-29500000D02*
X55250000Y-29500000D01*
%TD*%
M02*
